<svg width="240" height="221" viewBox="0 0 240 221" fill="none" xmlns="http://www.w3.org/2000/svg">
<path d="M178.188 61.9817C173.736 42.8425 162.408 26.0059 146.356 14.6723C130.303 3.33874 110.646 -1.70176 91.1211 0.508931C71.5958 2.71962 53.5634 12.0274 40.4514 26.663C27.3395 41.2986 20.0621 60.2418 20.0026 79.8917C19.9939 92.6971 23.0872 105.314 29.0177 116.663C18.2109 122.454 9.64925 131.691 4.69314 142.905C-0.262966 154.12 -1.32929 166.669 1.66359 178.558C4.65647 190.448 11.5369 200.997 21.2117 208.528C30.8864 216.06 42.8006 220.142 55.0613 220.127H160.238C179.861 220.036 198.769 212.747 213.377 199.643C227.984 186.538 237.275 168.53 239.489 149.031C241.702 129.532 236.683 109.899 225.384 93.8543C214.085 77.8095 197.292 66.4686 178.188 61.9817ZM160.238 200.093H55.0613C46.5313 200.119 38.2861 197.025 31.8777 191.395C25.4693 185.766 21.3397 177.988 20.2662 169.525C19.1927 161.063 21.2494 152.5 26.0491 145.449C30.8488 138.397 38.0605 133.343 46.3267 131.238C47.9165 130.829 49.3813 130.035 50.5923 128.926C51.8033 127.818 52.7233 126.429 53.2714 124.882C53.8196 123.334 53.979 121.676 53.7356 120.052C53.4923 118.429 52.8537 116.89 51.876 115.572C44.1746 105.272 40.0203 92.7525 40.0362 79.8917C40.1504 64.7262 45.994 50.1645 56.395 39.127C66.7959 28.0895 80.9852 21.3922 96.1173 20.3784C111.249 19.3645 126.205 24.109 137.986 33.6603C149.766 43.2116 157.5 56.8636 159.636 71.8783C159.925 74.0585 160.922 76.0833 162.476 77.6401C164.029 79.197 166.051 80.1994 168.231 80.4928C183.244 82.6287 196.895 90.361 206.446 102.139C215.998 113.918 220.744 128.871 219.733 144.002C218.721 159.133 212.028 173.322 200.994 183.724C189.96 194.127 175.401 199.974 160.238 200.093Z" fill="#294CD9"/>
</svg>
