<svg width="240" height="257" viewBox="0 0 240 257" fill="none" xmlns="http://www.w3.org/2000/svg">
<path d="M234.472 203.327L224.012 197.457C225.613 192.334 226.787 186.997 226.787 181.447C226.787 175.897 225.719 170.453 224.012 165.437L234.472 159.566C239.595 156.685 241.409 150.174 238.634 145.051C235.752 139.928 229.242 138.006 224.118 140.888L213.659 146.758C206.08 138.006 195.834 131.602 184.093 129.147V117.407C184.093 111.536 179.29 106.733 173.42 106.733C167.55 106.733 162.747 111.536 162.747 117.407V129.147C151.006 131.496 140.76 138.006 133.182 146.758L122.722 140.888C117.598 138.006 111.088 139.821 108.206 145.051C105.324 150.174 107.139 156.685 112.369 159.566L122.828 165.437C121.227 170.56 120.053 175.897 120.053 181.447C120.053 186.997 121.121 192.44 122.828 197.457L112.369 203.327C107.245 206.209 105.431 212.72 108.206 217.843C110.127 221.365 113.756 223.286 117.492 223.286C119.306 223.286 121.014 222.859 122.722 221.899L133.182 216.028C140.76 224.781 151.006 231.185 162.747 233.639V245.38C162.747 251.25 167.55 256.053 173.42 256.053C179.29 256.053 184.093 251.25 184.093 245.38V233.639C195.834 231.291 206.08 224.781 213.659 216.028L224.118 221.899C225.719 222.859 227.534 223.286 229.348 223.286C233.084 223.286 236.713 221.365 238.634 217.843C241.516 212.72 239.702 206.209 234.472 203.327ZM173.313 213.467C155.702 213.467 141.293 199.058 141.293 181.447C141.293 163.836 155.702 149.427 173.313 149.427C190.924 149.427 205.333 163.836 205.333 181.447C205.333 199.058 190.924 213.467 173.313 213.467ZM106.818 109.402L117.278 115.272C118.879 116.233 120.694 116.66 122.508 116.66C126.244 116.66 129.873 114.738 131.794 111.216C134.676 106.093 132.861 99.5823 127.631 96.7005L117.172 90.8301C118.773 85.7069 119.947 80.3703 119.947 74.8201C119.947 69.27 118.879 63.8266 117.172 58.8101L127.631 52.9398C132.755 50.058 134.569 43.5472 131.794 38.424C128.912 33.3008 122.401 31.3796 117.278 34.2614L106.818 40.1318C99.2403 31.3796 88.9939 24.9756 77.2533 22.5207V10.6733C77.2533 4.803 72.4503 0 66.5799 0C60.7096 0 55.9066 4.803 55.9066 10.6733V22.414C44.1659 24.7621 33.9195 31.2729 26.3414 40.025L15.8816 34.1547C10.7584 31.2729 4.24762 33.0874 1.36581 38.3173C-1.51599 43.4405 0.29848 49.9512 5.52842 52.833L15.9883 58.7034C14.3873 63.8266 13.2132 69.1632 13.2132 74.7134C13.2132 80.2635 14.2806 85.7069 15.9883 90.7234L5.52842 96.5937C0.405214 99.4755 -1.40925 105.986 1.36581 111.109C3.28702 114.632 6.91595 116.553 10.6516 116.553C12.4661 116.553 14.1738 116.126 15.8816 115.165L26.3414 109.295C33.9195 118.047 44.1659 124.451 55.9066 126.906V138.647C55.9066 144.517 60.7096 149.32 66.5799 149.32C72.4503 149.32 77.2533 144.517 77.2533 138.647V126.906C88.9939 124.558 99.2403 118.047 106.818 109.295V109.402ZM66.5799 106.733C48.9689 106.733 34.5599 92.3244 34.5599 74.7134C34.5599 57.1024 48.9689 42.6934 66.5799 42.6934C84.1909 42.6934 98.5999 57.1024 98.5999 74.7134C98.5999 92.3244 84.1909 106.733 66.5799 106.733Z" fill="#294CD9"/>
</svg>
