<svg width="240" height="240" viewBox="0 0 240 240" fill="none" xmlns="http://www.w3.org/2000/svg">
<path d="M174.18 149.935C149.81 149.935 130 170.125 130 194.935C130 220.695 156.18 239.935 179.59 239.935H218.35C225.41 239.935 232.03 236.605 236.08 231.035C239.95 225.715 241.01 219.115 239 212.915C231.36 189.395 212.79 149.945 174.18 149.945V149.935ZM227.99 225.155C225.82 228.145 222.21 229.935 218.35 229.935H179.59C161.28 229.935 140 214.645 140 194.935C140 175.635 155.34 159.935 174.18 159.935C206.47 159.935 222.69 195.055 229.49 215.995C230.51 219.115 229.95 222.455 227.99 225.155ZM239.99 32.3454C239.99 23.6754 236.63 15.5354 230.51 9.42542H230.5C218.27 -2.81458 196.87 -2.81458 184.66 9.42542L14.3 179.785C5.08 189.005 0 201.255 0 214.295V234.925C0 237.685 2.24 239.925 5 239.925H25.64C38.68 239.925 50.93 234.845 60.15 225.625L230.52 55.2754C236.63 49.1654 240 41.0254 240 32.3554L239.99 32.3454ZM53.08 218.565C45.75 225.895 36 229.935 25.64 229.935H10V214.305C10 203.935 14.04 194.195 21.37 186.865L154.29 53.9354L186 85.6454L53.08 218.565ZM223.45 48.2054L193.07 78.5854L161.36 46.8754L191.74 16.4954C200.17 8.04542 214.99 8.04542 223.43 16.4954C227.65 20.7354 229.99 26.3654 229.99 32.3554C229.99 38.3454 227.67 43.9854 223.45 48.2054ZM8.08 53.8354C2.25 47.1054 -0.53 38.7454 0.09 30.0954C0.71 21.4454 4.65 13.5654 11.17 7.90542C17.72 2.23542 26.04 -0.534577 34.74 0.0854227C43.39 0.705423 51.27 4.64542 56.92 11.1754L98.85 61.7454C100.61 63.8754 100.32 67.0254 98.2 68.7854C96.05 70.5554 92.91 70.2554 91.16 68.1354L49.29 17.6454C45.45 13.2054 40.01 10.4854 34.02 10.0554C28.09 9.63542 22.26 11.5354 17.74 15.4554C13.21 19.3854 10.49 24.8354 10.06 30.8154C9.64 36.8054 11.55 42.5854 15.47 47.0954L63.31 96.7754C65.22 98.7654 65.17 101.925 63.17 103.845C62.2 104.775 60.95 105.245 59.7 105.245C58.39 105.245 57.08 104.735 56.1 103.715L8.08 53.8354Z" fill="#294CD9"/>
</svg>
