<svg width="160" height="240" viewBox="0 0 160 240" fill="none" xmlns="http://www.w3.org/2000/svg">
<path d="M80 40C80 17.9 62.1 0 40 0C17.9 0 0 17.9 0 40V70C0 92.1 17.9 110 40 110C62.1 110 80 92.1 80 70V40ZM70 70C70 86.5 56.5 100 40 100C23.5 100 10 86.5 10 70V40C10 23.5 23.5 10 40 10C56.5 10 70 23.5 70 40V70ZM120 130C97.9 130 80 147.9 80 170V200C80 222.1 97.9 240 120 240C142.1 240 160 222.1 160 200V170C160 147.9 142.1 130 120 130ZM150 200C150 216.5 136.5 230 120 230C103.5 230 90 216.5 90 200V170C90 153.5 103.5 140 120 140C136.5 140 150 153.5 150 170V200ZM112 38C110 36 110 32.9 112 30.9L141.5 1.5C142.9 0.1 145.1 -0.4 146.9 0.4C148.8 1.2 150 3 150 5V105C150 107.8 147.8 110 145 110C142.2 110 140 107.8 140 105V17.1L119.1 38C117.1 40 114 40 112 38ZM40 135V235C40 237.8 37.8 240 35 240C32.2 240 30 237.8 30 235V147.1L9.1 168C7.1 170 4 170 2 168C-1.93715e-06 166 -1.93715e-06 162.9 2 160.9L31.4 131.5C32.8 130.1 35 129.6 36.8 130.4C38.7 131.2 39.9 133 39.9 135H40Z" fill="#294CD9"/>
</svg>
