<svg width="240" height="240" viewBox="0 0 240 240" fill="none" xmlns="http://www.w3.org/2000/svg">
<path d="M64.2888 40.4091L42.8425 5.2102L51.3949 0.0100196L72.8512 35.209L64.2888 40.4091ZM200.216 119.765C200.216 143.04 190.089 165.133 172.433 180.393C164.602 187.146 160.11 196.835 160.11 206.975V240H79.8997V206.985C79.8997 196.896 75.3277 187.126 67.3468 180.183C46.6725 162.188 36.6863 135.125 40.6667 107.771C45.8002 72.492 75.3277 44.0463 110.881 40.1085C134.012 37.5435 156.27 44.6174 173.495 60.0175C190.47 75.2173 200.216 96.9799 200.216 119.755V119.765ZM150.084 206.975C150.084 204.581 150.485 202.256 150.856 199.922H89.134C89.515 202.256 89.916 204.601 89.916 206.985V229.98H150.074V206.975H150.084ZM190.189 119.765C190.189 99.8455 181.667 80.7882 166.808 67.4922C151.748 54.0258 132.337 47.8136 111.974 50.0781C80.8924 53.5148 55.0746 78.3835 50.5928 109.224C47.1037 133.181 55.8265 156.887 73.9241 172.628C79.4686 177.447 83.5794 183.409 86.2965 189.902H114.982V134.283C103.552 131.958 94.9292 121.839 94.9292 109.745H104.956C104.956 118.031 111.703 124.774 119.995 124.774C128.287 124.774 135.034 118.031 135.034 109.745H145.061C145.061 121.849 136.438 131.958 125.008 134.283V189.902H153.643C156.33 183.439 160.381 177.538 165.855 172.808C181.316 159.462 190.189 140.124 190.189 119.765ZM197.168 5.2102L188.605 0L167.149 35.1989L175.711 40.4091L197.168 5.2102ZM235.869 48.7154L200.416 64.7167L204.547 73.8546L240 57.8533L235.869 48.7154ZM0 57.8533L35.4531 73.8546L39.5839 64.7167L4.13084 48.7154L0 57.8533Z" fill="#294CD9"/>
</svg>
