<svg width="240" height="240" viewBox="0 0 240 240" fill="none" xmlns="http://www.w3.org/2000/svg">
<path d="M240 120C240 55 188.97 0 120 0C53.83 0 0 53.83 0 120C0 186.17 53.83 240 120 240C191.79 240 240 183.33 240 120ZM229.69 128.33L197.86 115.46C197.17 115.11 196.66 114.49 196.47 113.73L190.2 88.67C189.92 87.54 190.44 86.3 191.6 85.63L217.66 69.4C225.55 84.56 230.01 101.77 230.01 120C230.01 122.8 229.89 125.58 229.69 128.33ZM120 10C120.95 10 121.91 10.01 122.85 10.04C116.42 18.66 106.45 32.08 104.6 34.94C100.67 41.02 100.55 48.68 104.28 54.91L111.61 67.13L104.62 63.63C97.66 60.14 89.32 61.51 83.87 67L78.58 72.29C75.18 75.68 73.32 80.2 73.32 85C73.32 86.71 73.55 88.39 74.02 90H56.02C54.93 90 53.86 89.55 53.08 88.72L26.83 61.6C46.3 30.63 80.79 10 120 10ZM120 230C59.35 230 10 180.65 10 120C10 102.28 14.22 85.53 21.69 70.68L45.85 95.63C48.49 98.4 52.19 100 56.02 100H75.5C78.4 100 81.13 101.13 83.19 103.18L86.91 106.91C88.88 108.88 90.01 111.6 90.01 114.37V124C90.01 127.89 91.52 131.53 94.26 134.25L106.15 146.15C108.64 148.64 110.01 151.95 110.01 155.46V179.11C110.01 185.12 114.9 190.01 120.91 190.01H123.04C127.28 190.01 131.16 187.52 132.93 183.68L155.34 135.13C158.01 129.36 155.96 122.48 150.56 119.12L124.94 103.09C121.71 101.08 117.99 100.01 114.18 100.01H99.87C96.77 100.01 93.75 98.76 91.57 96.57L85.65 90.65C84.15 89.15 83.32 87.14 83.32 85.01C83.32 82.88 84.15 80.87 85.65 79.37L90.95 74.07C93.37 71.64 97.08 71.04 100.15 72.59L108.94 76.98C112.58 78.82 116.98 78.1 119.79 75.22C122.86 72.15 123.45 67.43 121.24 63.73L112.86 49.77C111.1 46.83 111.16 43.23 113.01 40.37C114.92 37.42 127.98 19.9 134.65 10.98C167.36 15.35 195.57 34.14 212.65 60.74L186.46 77.05C181.6 79.85 179.15 85.62 180.5 91.08L186.77 116.13C187.66 119.73 190.08 122.75 193.76 124.56L228.43 138.59C219.57 190.42 174.33 229.99 120.01 229.99L120 230ZM113.21 139.07L101.31 127.16C100.47 126.32 100 125.2 100 123.99V114.36C100 112.89 99.83 111.42 99.52 109.99C99.64 109.99 99.74 109.99 99.86 109.99H114.17C116.1 109.99 118 110.53 119.65 111.55L145.27 127.58C146.39 128.28 146.81 129.71 146.26 130.91L123.04 179.99H120.91C120.42 179.99 120.01 179.58 120.01 179.09V155.44C120.01 149.26 117.6 143.44 113.22 139.06L113.21 139.07Z" fill="#294CD9"/>
</svg>
