<svg width="240" height="288" viewBox="0 0 240 288" fill="none" xmlns="http://www.w3.org/2000/svg">
<path d="M204 101.088V84C204 61.7218 195.15 40.3561 179.397 24.603C163.644 8.84998 142.278 0 120 0C97.7218 0 76.3561 8.84998 60.603 24.603C44.85 40.3561 36 61.7218 36 84V101.088C25.3123 105.752 16.2155 113.43 9.82199 123.183C3.42846 132.935 0.0153405 144.339 0 156V228C0.0190543 243.907 6.34658 259.157 17.5946 270.405C28.8427 281.653 44.0929 287.981 60 288H180C195.907 287.981 211.157 281.653 222.405 270.405C233.653 259.157 239.981 243.907 240 228V156C239.985 144.339 236.572 132.935 230.178 123.183C223.784 113.43 214.688 105.752 204 101.088ZM60 84C60 68.087 66.3214 52.8258 77.5736 41.5736C88.8258 30.3214 104.087 24 120 24C135.913 24 151.174 30.3214 162.426 41.5736C173.679 52.8258 180 68.087 180 84V96H60V84ZM216 228C216 237.548 212.207 246.705 205.456 253.456C198.705 260.207 189.548 264 180 264H60C50.4522 264 41.2955 260.207 34.5442 253.456C27.7928 246.705 24 237.548 24 228V156C24 146.452 27.7928 137.295 34.5442 130.544C41.2955 123.793 50.4522 120 60 120H180C189.548 120 198.705 123.793 205.456 130.544C212.207 137.295 216 146.452 216 156V228Z" fill="#294CD9"/>
</svg>
