<svg width="240" height="241" viewBox="0 0 240 241" fill="none" xmlns="http://www.w3.org/2000/svg">
<path d="M40.0076 45.0085C40.0076 42.248 42.248 40.0076 45.0085 40.0076H80.0152V5.00095C80.0152 2.24042 82.2556 0 85.0161 0C87.7766 0 90.0171 2.24042 90.0171 5.00095V40.0076H125.024C127.784 40.0076 130.025 42.248 130.025 45.0085C130.025 47.7691 127.784 50.0095 125.024 50.0095H90.0171V85.0161C90.0171 87.7766 87.7766 90.0171 85.0161 90.0171C82.2556 90.0171 80.0152 87.7766 80.0152 85.0161V50.0095H45.0085C42.248 50.0095 40.0076 47.7691 40.0076 45.0085ZM233.684 131.835L165.611 208.239C147.598 228.453 121.733 240.055 94.6679 240.055H35.0066C15.703 240.055 0 224.352 0 205.049V155.039C0 135.736 15.703 120.033 35.0066 120.033H133.605C145.688 120.033 155.9 128.174 159.03 139.256L196.357 98.2286C200.868 93.2677 207.049 90.3571 213.75 90.0471C220.452 89.827 226.873 92.0474 231.844 96.5683C241.956 105.79 242.776 121.613 233.684 131.835ZM225.113 103.96C222.132 101.239 218.231 99.8889 214.231 100.029C210.2 100.219 206.479 101.969 203.759 104.95L158.8 154.359C155.79 163.811 147.558 171.142 137.336 172.603L75.6043 179.994C72.7738 180.324 70.3733 178.364 70.0433 175.623C69.7132 172.883 71.6736 170.392 74.4141 170.062L136.036 162.691C143.957 161.561 150.028 154.569 150.028 146.448C150.028 137.396 142.657 130.025 133.605 130.025H35.0066C21.224 130.025 10.0019 141.247 10.0019 155.029V205.039C10.0019 218.821 21.224 230.044 35.0066 230.044H94.6679C118.893 230.044 142.027 219.672 158.14 201.578L226.213 125.174C231.694 119.023 231.194 109.501 225.113 103.95V103.96Z" fill="#294CD9"/>
</svg>
